<svg xmlns="http://www.w3.org/2000/svg" viewBox="0 0 640 900" width="640" height="900" preserveAspectRatio="xMidYMid slice" role="img" aria-label="Music management admin illustration">
  <defs>
    <linearGradient id="bg" x1="0" y1="0" x2="0.35" y2="1">
      <stop offset="0" stop-color="#2b1663"/>
      <stop offset="0.5" stop-color="#180b40"/>
      <stop offset="1" stop-color="#0c0522"/>
    </linearGradient>
    <linearGradient id="accent" x1="0" y1="0" x2="0" y2="1">
      <stop offset="0" stop-color="#c078f8"/><stop offset="1" stop-color="#7c2fd6"/>
    </linearGradient>
    <linearGradient id="album" x1="0" y1="0" x2="1" y2="1">
      <stop offset="0" stop-color="#b073f6"/><stop offset="1" stop-color="#6d28c9"/>
    </linearGradient>
    <radialGradient id="core" cx="0.5" cy="0.5" r="0.5">
      <stop offset="0" stop-color="#ffffff"/><stop offset="0.4" stop-color="#e6b3ff"/>
      <stop offset="1" stop-color="#9949f3" stop-opacity="0"/>
    </radialGradient>
    <radialGradient id="coreHalo" cx="0.5" cy="0.5" r="0.5">
      <stop offset="0" stop-color="#b073f6" stop-opacity="0.6"/>
      <stop offset="1" stop-color="#b073f6" stop-opacity="0"/>
    </radialGradient>
    <radialGradient id="glowspot" cx="0.5" cy="0.5" r="0.5">
      <stop offset="0" stop-color="#7c2fd6" stop-opacity="0.5"/>
      <stop offset="1" stop-color="#7c2fd6" stop-opacity="0"/>
    </radialGradient>
    <filter id="glow" x="-60%" y="-60%" width="220%" height="220%"><feGaussianBlur stdDeviation="26"/></filter>
    <filter id="glowSoft" x="-60%" y="-60%" width="220%" height="220%"><feGaussianBlur stdDeviation="1.4"/></filter>
    <filter id="soft" x="-70%" y="-70%" width="240%" height="240%"><feGaussianBlur stdDeviation="40"/></filter>
  </defs>

  <rect width="640" height="900" fill="url(#bg)"/>

  <circle cx="120" cy="140" r="120" fill="url(#glowspot)" filter="url(#soft)"/>
  <circle cx="560" cy="760" r="150" fill="url(#glowspot)" filter="url(#soft)"/>

  <path d="M-20 362.8 L-10 366.3 L0 369.6 L10 372.6 L20 375.2 L30 377.2 L40 378.8 L50 379.7 L60 380.0 L70 379.6 L80 378.7 L90 377.1 L100 374.9 L110 372.3 L120 369.3 L130 365.9 L140 362.4 L150 358.8 L160 355.3 L170 351.9 L180 348.7 L190 346.0 L200 343.6 L210 341.8 L220 340.6 L230 340.1 L240 340.1 L250 340.8 L260 342.1 L270 344.0 L280 346.5 L290 349.3 L300 352.5 L310 356.0 L320 359.5 L330 363.1 L340 366.6 L350 369.9 L360 372.8 L370 375.4 L380 377.4 L390 378.9 L400 379.8 L410 380.0 L420 379.6 L430 378.5 L440 376.9 L450 374.7 L460 372.0 L470 369.0 L480 365.6 L490 362.1 L500 358.5 L510 355.0 L520 351.6 L530 348.5 L540 345.7 L550 343.4 L560 341.7 L570 340.6 L580 340.0 L590 340.2 L600 340.9 L610 342.3 L620 344.3 L630 346.7 L640 349.6 L650 352.8 L660 356.3" fill="none" stroke="#c078f8" stroke-opacity="0.14" stroke-width="1.5"/>
  <path d="M-20 544.6 L-10 543.1 L0 541.0 L10 538.5 L20 535.6 L30 532.3 L40 528.7 L50 525.0 L60 521.1 L70 517.2 L80 513.4 L90 509.7 L100 506.2 L110 503.1 L120 500.3 L130 498.0 L140 496.2 L150 494.9 L160 494.2 L170 494.0 L180 494.5 L190 495.5 L200 497.0 L210 499.1 L220 501.7 L230 504.6 L240 507.9 L250 511.5 L260 515.3 L270 519.1 L280 523.0 L290 526.9 L300 530.5 L310 534.0 L320 537.1 L330 539.8 L340 542.1 L350 543.9 L360 545.2 L370 545.9 L380 546.0 L390 545.5 L400 544.5 L410 542.9 L420 540.8 L430 538.2 L440 535.2 L450 531.9 L460 528.3 L470 524.5 L480 520.6 L490 516.8 L500 512.9 L510 509.3 L520 505.9 L530 502.8 L540 500.0 L550 497.8 L560 496.0 L570 494.8 L580 494.1 L590 494.0 L600 494.5 L610 495.6 L620 497.2 L630 499.4 L640 502.0 L650 505.0 L660 508.3" fill="none" stroke="#9949f3" stroke-opacity="0.12" stroke-width="1.5"/>
  <path d="M-20 643.1 L-10 640.0 L0 637.3 L10 634.9 L20 633.0 L30 631.5 L40 630.6 L50 630.1 L60 630.1 L70 630.6 L80 631.6 L90 633.1 L100 635.0 L110 637.4 L120 640.1 L130 643.2 L140 646.6 L150 650.2 L160 653.9 L170 657.8 L180 661.7 L190 665.6 L200 669.3 L210 673.0 L220 676.4 L230 679.5 L240 682.3 L250 684.7 L260 686.7 L270 688.2 L280 689.3 L290 689.9 L300 690.0 L310 689.5 L320 688.6 L330 687.2 L340 685.3 L350 683.0 L360 680.3 L370 677.3 L380 674.0 L390 670.4 L400 666.7 L410 662.8 L420 658.9 L430 655.1 L440 651.3 L450 647.6 L460 644.2 L470 641.0 L480 638.2 L490 635.7 L500 633.6 L510 632.0 L520 630.8 L530 630.2 L540 630.0 L550 630.4 L560 631.2 L570 632.5 L580 634.3 L590 636.6 L600 639.2 L610 642.2 L620 645.4 L630 649.0 L640 652.7 L650 656.5 L660 660.4" fill="none" stroke="#c078f8" stroke-opacity="0.10" stroke-width="1.5"/>

  <circle cx="320" cy="430" r="130" fill="none" stroke="#c078f8" stroke-opacity="0.200" stroke-width="1.2"/>
  <circle cx="320" cy="430" r="195" fill="none" stroke="#c078f8" stroke-opacity="0.165" stroke-width="1.2"/>
  <circle cx="320" cy="430" r="270" fill="none" stroke="#c078f8" stroke-opacity="0.130" stroke-width="1.2"/>
  <circle cx="320" cy="430" r="350" fill="none" stroke="#c078f8" stroke-opacity="0.095" stroke-width="1.2"/>
  <circle cx="320" cy="430" r="430" fill="none" stroke="#c078f8" stroke-opacity="0.060" stroke-width="1.2"/>

  <circle cx="23" cy="612" r="2.5" fill="#ffffff" opacity="0.70"/>
  <circle cx="256" cy="699" r="2.3" fill="#ffffff" opacity="0.61"/>
  <circle cx="76" cy="445" r="1.2" fill="#ffffff" opacity="0.27"/>
  <circle cx="304" cy="125" r="2.5" fill="#ffffff" opacity="0.54"/>
  <circle cx="111" cy="250" r="1.3" fill="#ffffff" opacity="0.36"/>
  <circle cx="148" cy="338" r="2.0" fill="#ffffff" opacity="0.32"/>
  <circle cx="483" cy="676" r="2.5" fill="#ffffff" opacity="0.50"/>
  <circle cx="254" cy="870" r="1.1" fill="#ffffff" opacity="0.41"/>
  <circle cx="454" cy="861" r="2.0" fill="#ffffff" opacity="0.38"/>
  <circle cx="231" cy="90" r="1.6" fill="#ffffff" opacity="0.57"/>
  <circle cx="224" cy="195" r="1.5" fill="#ffffff" opacity="0.56"/>
  <circle cx="394" cy="351" r="1.2" fill="#ffffff" opacity="0.65"/>
  <circle cx="456" cy="317" r="1.5" fill="#ffffff" opacity="0.47"/>
  <circle cx="77" cy="647" r="2.2" fill="#ffffff" opacity="0.30"/>
  <circle cx="313" cy="838" r="1.5" fill="#ffffff" opacity="0.44"/>
  <circle cx="114" cy="349" r="1.1" fill="#ffffff" opacity="0.50"/>
  <circle cx="618" cy="351" r="2.2" fill="#ffffff" opacity="0.28"/>
  <circle cx="97" cy="247" r="1.0" fill="#ffffff" opacity="0.75"/>
  <circle cx="489" cy="655" r="2.6" fill="#ffffff" opacity="0.77"/>
  <circle cx="349" cy="504" r="0.8" fill="#ffffff" opacity="0.80"/>
  <circle cx="182" cy="656" r="1.1" fill="#ffffff" opacity="0.43"/>
  <circle cx="109" cy="455" r="1.3" fill="#ffffff" opacity="0.36"/>
  <circle cx="357" cy="643" r="2.5" fill="#ffffff" opacity="0.47"/>
  <circle cx="356" cy="357" r="2.0" fill="#ffffff" opacity="0.64"/>
  <circle cx="636" cy="678" r="1.3" fill="#ffffff" opacity="0.60"/>
  <circle cx="511" cy="84" r="2.3" fill="#ffffff" opacity="0.79"/>
  <circle cx="192" cy="458" r="0.8" fill="#ffffff" opacity="0.76"/>
  <circle cx="301" cy="226" r="1.1" fill="#ffffff" opacity="0.77"/>
  <circle cx="350" cy="396" r="2.0" fill="#ffffff" opacity="0.32"/>
  <circle cx="185" cy="271" r="1.4" fill="#ffffff" opacity="0.26"/>
  <circle cx="568" cy="194" r="2.2" fill="#ffffff" opacity="0.31"/>
  <circle cx="463" cy="399" r="2.5" fill="#ffffff" opacity="0.56"/>
  <circle cx="85" cy="517" r="2.4" fill="#ffffff" opacity="0.30"/>
  <circle cx="379" cy="625" r="1.7" fill="#ffffff" opacity="0.73"/>

  <circle cx="320" cy="430" r="120" fill="url(#coreHalo)" filter="url(#glow)"/>
  <circle cx="320" cy="430" r="64" fill="url(#core)"/>
  <g transform="translate(314,426) scale(1.7)">
    <ellipse cx="0" cy="24" rx="11" ry="8" transform="rotate(-20 0 24)" fill="#ffffff"/>
    <ellipse cx="34" cy="17" rx="11" ry="8" transform="rotate(-20 34 17)" fill="#ffffff"/>
    <rect x="9" y="-26" width="4.5" height="50" fill="#ffffff"/>
    <rect x="43" y="-33" width="4.5" height="50" fill="#ffffff"/>
    <path d="M13.5 -26 L47.5 -33 L47.5 -20 L13.5 -13 Z" fill="#ffffff"/>
  </g>

  <g transform="translate(168,246) scale(1)" opacity="0.95">
    <circle r="46" fill="#1a0c40"/>
    <circle r="46" fill="none" stroke="#7c2fd6" stroke-opacity="0.5" stroke-width="1"/>
    <circle r="38" fill="none" stroke="#9949f3" stroke-opacity="0.25" stroke-width="1"/>
    <circle r="30" fill="none" stroke="#9949f3" stroke-opacity="0.25" stroke-width="1"/>
    <circle r="22" fill="none" stroke="#9949f3" stroke-opacity="0.25" stroke-width="1"/>
    <circle r="15" fill="#b073f6"/>
    <circle r="4" fill="#1a0c40"/>
  </g>
  <g transform="translate(474,232) scale(1)" opacity="0.95">
    <path d="M-34 6 A34 34 0 0 1 34 6" fill="none" stroke="#c078f8" stroke-width="7" stroke-linecap="round"/>
    <rect x="-42" y="2" width="16" height="30" rx="7" fill="#9949f3"/>
    <rect x="26" y="2" width="16" height="30" rx="7" fill="#9949f3"/>
  </g>
  <g transform="translate(112,452) scale(0.95)" opacity="0.9">
    <rect x="-46" y="-30" width="92" height="60" rx="12" fill="rgba(180,120,246,0.10)" stroke="rgba(201,120,248,0.40)" stroke-width="1.5"/>
    <rect x="-38" y="0" width="6" height="18" rx="3" fill="url(#accent)"/>
    <rect x="-27" y="-12" width="6" height="30" rx="3" fill="url(#accent)"/>
    <rect x="-16" y="-26" width="6" height="44" rx="3" fill="url(#accent)"/>
    <rect x="-5" y="-8" width="6" height="26" rx="3" fill="url(#accent)"/>
    <rect x="6" y="-20" width="6" height="38" rx="3" fill="url(#accent)"/>
    <rect x="17" y="-4" width="6" height="22" rx="3" fill="url(#accent)"/>
    <rect x="28" y="-16" width="6" height="34" rx="3" fill="url(#accent)"/>

  </g>
  <g transform="translate(528,420) scale(1)" opacity="0.95">
    <rect x="-26" y="-26" width="52" height="52" rx="12" fill="url(#album)"/>
    <circle r="12" fill="rgba(0,0,0,0.25)"/>
    <path d="M-4 -6 L8 0 L-4 6 Z" fill="#fff" opacity="0.9"/>
  </g>
  <g transform="translate(176,650) scale(1)" opacity="0.92">
    <rect x="-44" y="-34" width="88" height="68" rx="12" fill="rgba(180,120,246,0.10)" stroke="rgba(201,120,248,0.40)" stroke-width="1.5"/>
    <rect x="-34" y="-24" width="26" height="26" rx="6" fill="url(#album)"/>
    <rect x="0" y="-22" width="34" height="5" rx="2.5" fill="#c078f8" opacity="0.8"/>
    <rect x="0" y="-11" width="26" height="5" rx="2.5" fill="#b073f6" opacity="0.55"/>
    <rect x="-34" y="10" width="68" height="5" rx="2.5" fill="#b073f6" opacity="0.45"/>
    <rect x="-34" y="21" width="50" height="5" rx="2.5" fill="#b073f6" opacity="0.35"/>
  </g>
  <g transform="translate(486,636) scale(0.95)" opacity="0.9">
    <rect x="-42" y="-32" width="84" height="64" rx="12" fill="rgba(180,120,246,0.10)" stroke="rgba(201,120,248,0.40)" stroke-width="1.5"/>
    <rect x="-30" y="6" width="10" height="18" rx="3" fill="url(#accent)"/>
    <rect x="-14" y="-2" width="10" height="26" rx="3" fill="url(#accent)"/>
    <rect x="2" y="-12" width="10" height="36" rx="3" fill="url(#accent)"/>
    <rect x="18" y="-6" width="10" height="30" rx="3" fill="url(#accent)"/>
    <polyline points="-30,-8 -14,-16 2,-22 18,-16" fill="none" stroke="#e9d0ff" stroke-width="2" stroke-linecap="round" stroke-linejoin="round"/>
  </g>
  <g transform="translate(328,138) scale(0.85)" opacity="0.9">
    <circle r="26" fill="url(#accent)"/>
    <circle cy="-6" r="9" fill="#fff" opacity="0.92"/>
    <path d="M-14 18 A16 16 0 0 1 14 18 Z" fill="#fff" opacity="0.92"/>
  </g>
  <g transform="translate(92,326) scale(0.8)" opacity="0.8">
    <path d="M-34 -20 h20 l7 8 h34 a6 6 0 0 1 6 6 v26 a6 6 0 0 1 -6 6 h-61 a6 6 0 0 1 -6 -6 v-34 a6 6 0 0 1 6 -6 z" fill="rgba(180,120,246,0.10)" stroke="rgba(201,120,248,0.40)" stroke-width="1.5"/>
    <circle cx="8" cy="12" r="4" fill="#c078f8"/>
    <rect x="11" y="-6" width="3" height="18" fill="#c078f8"/>
  </g>
  <g transform="translate(556,314) scale(0.8)" opacity="0.85">
    <rect x="-9" y="-30" width="18" height="34" rx="9" fill="url(#accent)"/>
    <path d="M-16 -2 a16 16 0 0 0 32 0" fill="none" stroke="#c078f8" stroke-width="3"/>
    <rect x="-2" y="14" width="4" height="12" fill="#c078f8"/>
    <rect x="-12" y="26" width="24" height="4" rx="2" fill="#c078f8"/>
  </g>
  <g transform="translate(330,772) scale(0.9)" opacity="0.85">
    <rect x="-24" y="-34" width="48" height="68" rx="10" fill="rgba(180,120,246,0.10)" stroke="rgba(201,120,248,0.40)" stroke-width="1.5"/>
    <circle cy="10" r="13" fill="none" stroke="#c078f8" stroke-width="2"/>
    <circle cy="10" r="5" fill="#b073f6"/>
    <circle cy="-18" r="6" fill="none" stroke="#c078f8" stroke-width="2"/>
  </g>
  <g transform="translate(150,540) scale(0.75)" opacity="0.7">
    <rect x="-26" y="-26" width="52" height="52" rx="12" fill="url(#album)"/>
    <circle r="12" fill="rgba(0,0,0,0.25)"/>
    <path d="M-4 -6 L8 0 L-4 6 Z" fill="#fff" opacity="0.9"/>
  </g>
  <g transform="translate(470,510) scale(0.7)" opacity="0.7">
    <ellipse cx="0" cy="24" rx="11" ry="8" transform="rotate(-20 0 24)" fill="#e9d0ff"/>
    <rect x="9" y="-16" width="4" height="40" fill="#e9d0ff"/>
    <path d="M13 -16 q18 5 14 25 q0 -14 -14 -18 z" fill="#e9d0ff"/>
  </g>
  <g transform="translate(210,410) scale(0.55)" opacity="0.65">
    <ellipse cx="0" cy="24" rx="11" ry="8" transform="rotate(-20 0 24)" fill="#e9d0ff"/>
    <rect x="9" y="-16" width="4" height="40" fill="#e9d0ff"/>
    <path d="M13 -16 q18 5 14 25 q0 -14 -14 -18 z" fill="#e9d0ff"/>
  </g>
  <g transform="translate(430,720) scale(0.6)" opacity="0.6">
    <ellipse cx="0" cy="24" rx="11" ry="8" transform="rotate(-20 0 24)" fill="#e9d0ff"/>
    <rect x="9" y="-16" width="4" height="40" fill="#e9d0ff"/>
    <path d="M13 -16 q18 5 14 25 q0 -14 -14 -18 z" fill="#e9d0ff"/>
  </g>
</svg>
